<svg xmlns="http://www.w3.org/2000/svg" xmlns:xlink="http://www.w3.org/1999/xlink" width="657" zoomAndPan="magnify" viewBox="0 0 492.75 127.500001" height="170" preserveAspectRatio="xMidYMid meet" version="1.0"><defs><g/><clipPath id="e70c87efa3"><rect x="0" width="445" y="0" height="95"/></clipPath><clipPath id="cd0727a08f"><path d="M 1 0.128906 L 459 0.128906 L 459 11 L 1 11 Z M 1 0.128906 " clip-rule="nonzero"/></clipPath><clipPath id="d6546621d5"><path d="M 1 99 L 459 99 L 459 110.335938 L 1 110.335938 Z M 1 99 " clip-rule="nonzero"/></clipPath><clipPath id="5d9f5b59e0"><rect x="0" width="460" y="0" height="111"/></clipPath></defs><g transform="matrix(1, 0, 0, 1, 16, 8)"><g clip-path="url(#5d9f5b59e0)"><g transform="matrix(1, 0, 0, 1, 8, 8)"><g clip-path="url(#e70c87efa3)"><g fill="#ffffff" fill-opacity="1"><g transform="translate(0.710368, 72.677453)"><g><path d="M 6.25 -49.625 L 21.6875 -49.625 C 28.726562 -49.625 33.835938 -48.617188 37.015625 -46.609375 C 40.191406 -44.609375 41.78125 -41.425781 41.78125 -37.0625 C 41.78125 -34.101562 41.082031 -31.671875 39.6875 -29.765625 C 38.300781 -27.867188 36.453125 -26.726562 34.140625 -26.34375 L 34.140625 -26 C 37.285156 -25.300781 39.554688 -23.988281 40.953125 -22.0625 C 42.347656 -20.132812 43.046875 -17.578125 43.046875 -14.390625 C 43.046875 -9.867188 41.410156 -6.335938 38.140625 -3.796875 C 34.867188 -1.265625 30.425781 0 24.8125 0 L 6.25 0 Z M 16.765625 -29.96875 L 22.875 -29.96875 C 25.726562 -29.96875 27.789062 -30.410156 29.0625 -31.296875 C 30.34375 -32.179688 30.984375 -33.640625 30.984375 -35.671875 C 30.984375 -37.578125 30.285156 -38.941406 28.890625 -39.765625 C 27.503906 -40.585938 25.304688 -41 22.296875 -41 L 16.765625 -41 Z M 16.765625 -21.625 L 16.765625 -8.6875 L 23.625 -8.6875 C 26.519531 -8.6875 28.65625 -9.238281 30.03125 -10.34375 C 31.414062 -11.457031 32.109375 -13.15625 32.109375 -15.4375 C 32.109375 -19.5625 29.164062 -21.625 23.28125 -21.625 Z M 16.765625 -21.625 "/></g></g><g transform="translate(47.416653, 72.677453)"><g><path d="M 16.765625 -27.59375 L 20.15625 -27.59375 C 23.488281 -27.59375 25.945312 -28.144531 27.53125 -29.25 C 29.113281 -30.363281 29.90625 -32.109375 29.90625 -34.484375 C 29.90625 -36.835938 29.09375 -38.507812 27.46875 -39.5 C 25.851562 -40.5 23.347656 -41 19.953125 -41 L 16.765625 -41 Z M 16.765625 -19.046875 L 16.765625 0 L 6.25 0 L 6.25 -49.625 L 20.703125 -49.625 C 27.453125 -49.625 32.441406 -48.394531 35.671875 -45.9375 C 38.910156 -43.488281 40.53125 -39.765625 40.53125 -34.765625 C 40.53125 -31.835938 39.722656 -29.238281 38.109375 -26.96875 C 36.503906 -24.695312 34.234375 -22.914062 31.296875 -21.625 C 38.765625 -10.46875 43.628906 -3.257812 45.890625 0 L 34.21875 0 L 22.375 -19.046875 Z M 16.765625 -19.046875 "/></g></g><g transform="translate(93.308294, 72.677453)"><g><path d="M 36.625 0 L 33.03125 -11.8125 L 14.9375 -11.8125 L 11.34375 0 L 0 0 L 17.515625 -49.828125 L 30.375 -49.828125 L 47.96875 0 Z M 30.515625 -20.640625 C 27.191406 -31.335938 25.316406 -37.390625 24.890625 -38.796875 C 24.472656 -40.203125 24.175781 -41.3125 24 -42.125 C 23.25 -39.226562 21.109375 -32.066406 17.578125 -20.640625 Z M 30.515625 -20.640625 "/></g></g><g transform="translate(141.27049, 72.677453)"><g><path d="M 35.53125 -13.78125 C 35.53125 -9.300781 33.914062 -5.769531 30.6875 -3.1875 C 27.46875 -0.613281 22.988281 0.671875 17.25 0.671875 C 11.945312 0.671875 7.257812 -0.320312 3.1875 -2.3125 L 3.1875 -12.078125 C 6.539062 -10.585938 9.375 -9.535156 11.6875 -8.921875 C 14.007812 -8.316406 16.132812 -8.015625 18.0625 -8.015625 C 20.363281 -8.015625 22.128906 -8.453125 23.359375 -9.328125 C 24.597656 -10.210938 25.21875 -11.523438 25.21875 -13.265625 C 25.21875 -14.242188 24.945312 -15.109375 24.40625 -15.859375 C 23.863281 -16.617188 23.066406 -17.347656 22.015625 -18.046875 C 20.960938 -18.753906 18.816406 -19.878906 15.578125 -21.421875 C 12.546875 -22.847656 10.269531 -24.21875 8.75 -25.53125 C 7.238281 -26.84375 6.03125 -28.367188 5.125 -30.109375 C 4.21875 -31.847656 3.765625 -33.882812 3.765625 -36.21875 C 3.765625 -40.601562 5.25 -44.050781 8.21875 -46.5625 C 11.195312 -49.082031 15.3125 -50.34375 20.5625 -50.34375 C 23.144531 -50.34375 25.609375 -50.035156 27.953125 -49.421875 C 30.296875 -48.804688 32.742188 -47.945312 35.296875 -46.84375 L 31.90625 -38.65625 C 29.257812 -39.75 27.066406 -40.507812 25.328125 -40.9375 C 23.597656 -41.363281 21.898438 -41.578125 20.234375 -41.578125 C 18.242188 -41.578125 16.710938 -41.113281 15.640625 -40.1875 C 14.578125 -39.257812 14.046875 -38.050781 14.046875 -36.5625 C 14.046875 -35.632812 14.257812 -34.820312 14.6875 -34.125 C 15.125 -33.4375 15.8125 -32.769531 16.75 -32.125 C 17.6875 -31.476562 19.910156 -30.316406 23.421875 -28.640625 C 28.054688 -26.429688 31.234375 -24.210938 32.953125 -21.984375 C 34.671875 -19.753906 35.53125 -17.019531 35.53125 -13.78125 Z M 35.53125 -13.78125 "/></g></g><g transform="translate(179.558782, 72.677453)"><g><path d="M 6.25 0 L 6.25 -49.625 L 16.765625 -49.625 L 16.765625 0 Z M 6.25 0 "/></g></g><g transform="translate(202.572489, 72.677453)"><g><path d="M 6.25 0 L 6.25 -49.625 L 16.765625 -49.625 L 16.765625 -8.6875 L 36.890625 -8.6875 L 36.890625 0 Z M 6.25 0 "/></g></g><g transform="translate(241.845143, 72.677453)"><g><path d="M 34.828125 0 L 6.25 0 L 6.25 -49.625 L 34.828125 -49.625 L 34.828125 -41 L 16.765625 -41 L 16.765625 -30.109375 L 33.5625 -30.109375 L 33.5625 -21.484375 L 16.765625 -21.484375 L 16.765625 -8.6875 L 34.828125 -8.6875 Z M 34.828125 0 "/></g></g><g transform="translate(280.778362, 72.677453)"><g><path d="M 6.25 0 L 6.25 -49.625 L 16.765625 -49.625 L 16.765625 0 Z M 6.25 0 "/></g></g><g transform="translate(303.792069, 72.677453)"><g><path d="M 16.765625 -27.59375 L 20.15625 -27.59375 C 23.488281 -27.59375 25.945312 -28.144531 27.53125 -29.25 C 29.113281 -30.363281 29.90625 -32.109375 29.90625 -34.484375 C 29.90625 -36.835938 29.09375 -38.507812 27.46875 -39.5 C 25.851562 -40.5 23.347656 -41 19.953125 -41 L 16.765625 -41 Z M 16.765625 -19.046875 L 16.765625 0 L 6.25 0 L 6.25 -49.625 L 20.703125 -49.625 C 27.453125 -49.625 32.441406 -48.394531 35.671875 -45.9375 C 38.910156 -43.488281 40.53125 -39.765625 40.53125 -34.765625 C 40.53125 -31.835938 39.722656 -29.238281 38.109375 -26.96875 C 36.503906 -24.695312 34.234375 -22.914062 31.296875 -21.625 C 38.765625 -10.46875 43.628906 -3.257812 45.890625 0 L 34.21875 0 L 22.375 -19.046875 Z M 16.765625 -19.046875 "/></g></g><g transform="translate(349.68371, 72.677453)"><g><path d="M 51.28125 -24.875 C 51.28125 -16.664062 49.242188 -10.351562 45.171875 -5.9375 C 41.097656 -1.53125 35.257812 0.671875 27.65625 0.671875 C 20.0625 0.671875 14.226562 -1.53125 10.15625 -5.9375 C 6.082031 -10.351562 4.046875 -16.691406 4.046875 -24.953125 C 4.046875 -33.210938 6.085938 -39.519531 10.171875 -43.875 C 14.253906 -48.226562 20.109375 -50.40625 27.734375 -50.40625 C 35.359375 -50.40625 41.1875 -48.207031 45.21875 -43.8125 C 49.257812 -39.425781 51.28125 -33.113281 51.28125 -24.875 Z M 15.078125 -24.875 C 15.078125 -19.332031 16.128906 -15.15625 18.234375 -12.34375 C 20.335938 -9.539062 23.476562 -8.140625 27.65625 -8.140625 C 36.050781 -8.140625 40.25 -13.71875 40.25 -24.875 C 40.25 -36.050781 36.078125 -41.640625 27.734375 -41.640625 C 23.546875 -41.640625 20.390625 -40.234375 18.265625 -37.421875 C 16.140625 -34.609375 15.078125 -30.425781 15.078125 -24.875 Z M 15.078125 -24.875 "/></g></g><g transform="translate(405.01165, 72.677453)"><g><path d="M 35.53125 -13.78125 C 35.53125 -9.300781 33.914062 -5.769531 30.6875 -3.1875 C 27.46875 -0.613281 22.988281 0.671875 17.25 0.671875 C 11.945312 0.671875 7.257812 -0.320312 3.1875 -2.3125 L 3.1875 -12.078125 C 6.539062 -10.585938 9.375 -9.535156 11.6875 -8.921875 C 14.007812 -8.316406 16.132812 -8.015625 18.0625 -8.015625 C 20.363281 -8.015625 22.128906 -8.453125 23.359375 -9.328125 C 24.597656 -10.210938 25.21875 -11.523438 25.21875 -13.265625 C 25.21875 -14.242188 24.945312 -15.109375 24.40625 -15.859375 C 23.863281 -16.617188 23.066406 -17.347656 22.015625 -18.046875 C 20.960938 -18.753906 18.816406 -19.878906 15.578125 -21.421875 C 12.546875 -22.847656 10.269531 -24.21875 8.75 -25.53125 C 7.238281 -26.84375 6.03125 -28.367188 5.125 -30.109375 C 4.21875 -31.847656 3.765625 -33.882812 3.765625 -36.21875 C 3.765625 -40.601562 5.25 -44.050781 8.21875 -46.5625 C 11.195312 -49.082031 15.3125 -50.34375 20.5625 -50.34375 C 23.144531 -50.34375 25.609375 -50.035156 27.953125 -49.421875 C 30.296875 -48.804688 32.742188 -47.945312 35.296875 -46.84375 L 31.90625 -38.65625 C 29.257812 -39.75 27.066406 -40.507812 25.328125 -40.9375 C 23.597656 -41.363281 21.898438 -41.578125 20.234375 -41.578125 C 18.242188 -41.578125 16.710938 -41.113281 15.640625 -40.1875 C 14.578125 -39.257812 14.046875 -38.050781 14.046875 -36.5625 C 14.046875 -35.632812 14.257812 -34.820312 14.6875 -34.125 C 15.125 -33.4375 15.8125 -32.769531 16.75 -32.125 C 17.6875 -31.476562 19.910156 -30.316406 23.421875 -28.640625 C 28.054688 -26.429688 31.234375 -24.210938 32.953125 -21.984375 C 34.671875 -19.753906 35.53125 -17.019531 35.53125 -13.78125 Z M 35.53125 -13.78125 "/></g></g></g></g></g><g clip-path="url(#cd0727a08f)"><path stroke-linecap="butt" transform="matrix(0.945246, 0, 0, 0.945246, 6.60587, 0.170624)" fill="none" stroke-linejoin="miter" d="M -0.000424458 5.501709 L 472.697966 5.501709 " stroke="#ffffff" stroke-width="11" stroke-opacity="1" stroke-miterlimit="4"/></g><g clip-path="url(#d6546621d5)"><path stroke-linecap="butt" transform="matrix(0.945246, 0, 0, 0.945246, 6.60587, 99.733677)" fill="none" stroke-linejoin="miter" d="M -0.000424458 5.501123 L 472.697966 5.501123 " stroke="#ffffff" stroke-width="11" stroke-opacity="1" stroke-miterlimit="4"/></g></g></g></svg>